<svg xmlns="http://www.w3.org/2000/svg" viewBox="0 0 200 300" width="200" height="300">
  <!-- Standard Breast Cancer Awareness Ribbon -->

  <!-- Main ribbon shape with white outline -->
  <path d="M 100,30
           C 65,30 40,50 30,85
           C 20,120 25,155 42,180
           L 75,235
           L 85,228
           L 100,270
           L 95,235
           L 58,175
           C 45,155 40,125 48,95
           C 56,65 78,50 100,45
           Z
           M 100,30
           C 135,30 160,50 170,85
           C 180,120 175,155 158,180
           L 125,235
           L 115,228
           L 100,270
           L 105,235
           L 142,175
           C 155,155 160,125 152,95
           C 144,65 122,50 100,45
           Z"
        fill="#E91E8C"
        stroke="#FFFFFF"
        stroke-width="8"
        stroke-linejoin="round"/>

  <!-- Inner highlight for dimension -->
  <path d="M 100,45
           C 78,50 56,65 48,95
           C 42,118 45,145 55,165
           L 85,215"
        fill="none"
        stroke="#F394C4"
        stroke-width="4"
        opacity="0.6"/>

  <path d="M 100,45
           C 122,50 144,65 152,95
           C 158,118 155,145 145,165
           L 115,215"
        fill="none"
        stroke="#F394C4"
        stroke-width="4"
        opacity="0.6"/>
</svg>
